<svg width="48" height="48" viewBox="0 0 48 48" fill="none" xmlns="http://www.w3.org/2000/svg">
<path d="M44.7819 11.9529C42.6357 8.27605 39.7245 5.36486 36.0476 3.21876C32.37 1.07277 28.3553 0 24.0007 0C19.6464 0 15.6306 1.07277 11.9536 3.21876C8.27648 5.36453 5.36529 8.27572 3.21909 11.9529C1.07277 15.6303 0 19.6461 0 24C0 28.3541 1.0731 32.3693 3.21876 36.0469C5.36486 39.7237 8.27605 42.6349 11.9532 44.7812C15.6306 46.9271 19.6461 48 24.0002 48C28.3544 48 32.3703 46.9271 36.0474 44.7812C39.7244 42.6357 42.6355 39.7237 44.7815 36.0469C46.9271 32.3696 47.9998 28.3539 47.9998 24C47.9999 19.6456 46.9271 15.6297 44.7819 11.9529ZM24.0003 3.50006C29.1667 3.50006 33.6773 5.20833 37.5313 8.62477L37.1407 9.17128C36.9845 9.39041 36.5938 9.81182 35.9691 10.4371C35.3442 11.0619 34.6618 11.656 33.9224 12.2184C33.1822 12.781 32.1776 13.4216 30.9063 14.1403C29.6354 14.8591 28.2814 15.4897 26.8437 16.0313C24.448 11.6142 21.8858 7.63508 19.1565 4.09364C20.8026 3.69785 22.4171 3.50006 24.0003 3.50006ZM7.93816 11.2805C9.93802 8.76017 12.3752 6.82237 15.2504 5.4684C17.8337 8.90585 20.3752 12.8436 22.8753 17.281C16.542 18.9476 10.2297 19.781 3.93799 19.7807C4.60502 16.6351 5.93829 13.8014 7.93816 11.2805ZM4.87515 31.3912C3.95835 29.0475 3.50006 26.5836 3.50006 24C3.50006 23.7082 3.51079 23.4894 3.53137 23.3437C11.0734 23.3437 18.084 22.3752 24.5631 20.4373C25.2299 21.7289 25.782 22.8852 26.2195 23.9063C26.1351 23.9479 26.0007 23.9945 25.8131 24.0467C25.625 24.0988 25.4899 24.135 25.4058 24.1561L24.2499 24.5623C23.4579 24.8541 22.4211 25.3542 21.1404 26.0621C19.8593 26.7712 18.5 27.6144 17.0624 28.5939C15.6248 29.5734 14.1403 30.8702 12.6093 32.4853C11.078 34.0998 9.79157 35.8337 8.74988 37.6878C7.0832 35.8337 5.79173 33.7342 4.87515 31.3912ZM24.0003 44.5003C19.1252 44.5003 14.771 42.9376 10.9376 39.8128L11.4064 40.1567C12.1355 38.5521 13.2082 37.0103 14.6252 35.5315C16.042 34.0526 17.4065 32.8593 18.719 31.9528C20.0315 31.0472 21.4584 30.1931 23.0003 29.39C24.5419 28.5885 25.5935 28.0775 26.1565 27.8595C26.7191 27.6408 27.1671 27.4685 27.5004 27.3433L27.5626 27.3119H27.6255C29.6665 32.666 31.1256 37.8539 32.0002 42.8747C29.4168 43.9586 26.7506 44.4999 24.0003 44.5003ZM41.2512 35.0782C39.7094 37.4639 37.7819 39.4383 35.4701 41.0002C34.6152 36.2087 33.2826 31.3227 31.4696 26.3439C35.6154 25.6973 39.8758 26 44.2508 27.2495C43.7923 30.0829 42.7922 32.693 41.2512 35.0782ZM44.1879 23.7188C43.9796 23.6774 43.7189 23.6301 43.4065 23.5784C43.0941 23.5266 42.7135 23.4638 42.2655 23.3909C41.8182 23.318 41.3174 23.2504 40.7657 23.1878C40.2135 23.1253 39.6251 23.0682 38.9996 23.0161C38.3748 22.9638 37.708 22.9225 37 22.891C36.2909 22.8599 35.5725 22.8441 34.8432 22.8441C34.1147 22.8441 33.3484 22.8653 32.5467 22.9066C31.7449 22.9477 30.969 23.0215 30.2192 23.1254C30.1562 23.0211 30.0783 22.8492 29.9846 22.6095C29.891 22.3701 29.8227 22.1875 29.7823 22.0625C29.386 21.1875 28.9275 20.1978 28.4061 19.094C29.8437 18.5103 31.2139 17.8386 32.5167 17.078C33.8184 16.3174 34.8593 15.6408 35.641 15.0471C36.4224 14.4527 37.1619 13.8225 37.8597 13.156C38.5579 12.4894 39.0104 12.0261 39.2195 11.7656C39.4281 11.5047 39.6259 11.2496 39.8132 11L39.8446 10.9684C42.8861 14.6768 44.4389 18.9474 44.5006 23.7812L44.1879 23.7188Z" fill="white"/>
</svg>
