<svg width="24" height="24" viewBox="0 0 24 24" fill="none" xmlns="http://www.w3.org/2000/svg">
<path d="M20.2454 3.2956L19.7777 2.85252L19.7618 2.87973C17.588 1.02529 14.8612 0 12 0C10.4438 0 8.92722 0.302914 7.48248 0.892312L7.47581 0.885637L7.15184 1.02837C3.61751 2.59274 1.03915 5.77538 0.254139 9.54127L0.170966 9.9407L0.180721 9.94532C0.0631498 10.6261 0 11.3151 0 12.0005C0 15.5364 1.5387 18.8387 4.2295 21.129L4.22539 21.1393L4.53446 21.3852C6.68258 23.0959 9.26402 24 12 24C13.4442 24 14.8772 23.7335 16.2598 23.2078L16.5909 23.082V23.0671C20.5904 21.4632 23.3228 17.893 23.8752 13.57L23.904 13.5803L23.9553 12.9159C23.9764 12.6377 24.001 12.3229 24.001 12.001C24 8.68181 22.6667 5.59055 20.2454 3.2956ZM22.9732 12.0005C22.9732 12.0616 22.9721 12.1227 22.9706 12.1833C21.5295 11.7505 20.0395 11.5318 18.5311 11.5318C17.2291 11.5318 15.9322 11.6966 14.6697 12.0226L14.6672 12.0154L14.6641 12.0164C14.4033 11.3146 14.1214 10.6297 13.8216 9.97202L13.8262 9.96997L13.8221 9.96175C16.345 8.72494 18.4587 6.84893 19.9872 4.49031C21.9176 6.53472 22.9732 9.17777 22.9732 12.0005ZM19.2196 3.76588C17.7862 6.04184 15.7772 7.84752 13.3657 9.02991C12.0293 6.3504 10.3129 3.88808 8.25209 1.69426C9.45758 1.25324 10.7144 1.02683 12 1.02683C14.6697 1.02683 17.2127 2.00282 19.2196 3.76588ZM7.24528 2.11629C9.34822 4.29881 11.0923 6.76473 12.4385 9.45707C10.716 10.1574 8.89745 10.5121 7.02554 10.5121C5.0566 10.5121 3.14979 10.1209 1.35182 9.34925C2.13477 6.19638 4.30291 3.53433 7.24528 2.11629ZM1.02683 12.0005C1.02683 11.4589 1.06893 10.9146 1.14953 10.374C3.0163 11.1447 4.98883 11.5384 7.02452 11.5384C9.04736 11.5384 11.0107 11.1467 12.8707 10.3838C13.1557 11.0076 13.4227 11.655 13.6717 12.3214C9.73482 13.6234 6.50648 16.4369 4.67462 20.1602C2.34938 18.0752 1.02683 15.137 1.02683 12.0005ZM5.49044 20.8256C7.18521 17.2342 10.259 14.5178 14.0218 13.2815C15.006 16.2131 15.523 19.2658 15.5615 22.3689C14.4002 22.7699 13.2034 22.9732 12 22.9732C9.63163 22.9737 7.38955 22.2323 5.49044 20.8256ZM16.574 21.9664C16.498 18.909 15.9718 15.9025 15.0055 13.0083C17.5972 12.3558 20.3347 12.4374 22.8782 13.2409C22.4474 17.1465 20.0847 20.4097 16.574 21.9664Z" fill="white"/>
</svg>
