<svg width="48" height="48" viewBox="0 0 48 48" fill="none" xmlns="http://www.w3.org/2000/svg">
<path d="M43.7812 7.125H4.21875C1.89731 7.125 0 9.01397 0 11.3438V36.6562C0 38.9869 1.89853 40.875 4.21875 40.875H43.7812C46.1027 40.875 48 38.986 48 36.6562V11.3438C48 9.01341 46.1018 7.125 43.7812 7.125ZM43.1334 9.9375C41.7695 11.306 25.748 27.3797 25.0897 28.0401C24.54 28.5915 23.4603 28.5919 22.9103 28.0401L4.86656 9.9375H43.1334ZM2.8125 36.1392V11.8608L14.9123 24L2.8125 36.1392ZM4.86656 38.0625L16.8979 25.992L20.9183 30.0256C22.5659 31.6785 25.4348 31.6778 27.0818 30.0256L31.1022 25.9921L43.1334 38.0625H4.86656ZM45.1875 36.1392L33.0877 24L45.1875 11.8608V36.1392Z" fill="white"/>
</svg>
