<svg width="25" height="24" viewBox="0 0 25 24" fill="none" xmlns="http://www.w3.org/2000/svg">
<path d="M3.29491 0C2.40001 0 1.58644 0.325439 0.976269 0.935607C0.325439 1.58644 0 2.39996 0 3.2542C0 4.1491 0.366101 4.96267 0.976269 5.57284C1.58644 6.18301 2.44067 6.54911 3.25425 6.50845C3.25425 6.50845 3.29491 6.50845 3.33562 6.50845C4.14919 6.50845 4.92206 6.18301 5.53222 5.57284C6.14239 4.96267 6.50849 4.1491 6.50849 3.2542C6.54916 2.39996 6.18305 1.58639 5.57289 0.976222C4.96272 0.325391 4.14914 0 3.29491 0ZM4.96272 5.00338C4.51525 5.45085 3.90508 5.73558 3.25425 5.69492C2.64408 5.69492 1.99325 5.45085 1.54578 5.00338C1.05764 4.55591 0.813574 3.90508 0.813574 3.25425C0.813574 2.60342 1.05764 1.99325 1.54578 1.50511C1.99325 1.05764 2.60342 0.813574 3.29491 0.813574C3.90508 0.813574 4.51525 1.05764 4.96272 1.50511C5.45085 1.99325 5.69492 2.60342 5.69492 3.25425C5.69492 3.90508 5.45085 4.55591 4.96272 5.00338Z" fill="white"/>
<path d="M4.88083 7.32202H1.58592C0.935094 7.32202 0.40625 7.85082 0.40625 8.54236V22.7796C0.40625 23.4305 0.975756 24 1.62659 24H4.88083C5.53166 24 6.10117 23.4305 6.10117 22.8203V8.54236C6.10117 7.89148 5.53166 7.32202 4.88083 7.32202ZM5.2876 22.8203C5.2876 23.0237 5.08419 23.1864 4.88083 23.1864H1.62659C1.42318 23.1864 1.21982 22.983 1.21982 22.7796V8.54236C1.21982 8.33895 1.38252 8.1356 1.58592 8.1356H4.88083C5.08424 8.1356 5.2876 8.339 5.2876 8.54236V22.8203Z" fill="white"/>
<path d="M18.7117 6.91504H17.8574C16.271 6.91504 14.7659 7.60658 13.7896 8.70488V8.13538C13.7896 7.72861 13.3829 7.3218 12.9761 7.3218H8.9083C8.5422 7.3218 8.09473 7.64724 8.09473 8.09467V23.2675C8.09473 23.715 8.5422 23.9997 8.9083 23.9997H13.3829C13.749 23.9997 14.1965 23.715 14.1965 23.2675V14.4811C14.1965 13.1387 15.1727 12.0811 16.4337 12.0811C17.0846 12.0811 17.6947 12.3251 18.1422 12.7726C18.549 13.1387 18.7117 13.7082 18.7117 14.4404V23.1862C18.7117 23.5929 19.1185 23.9998 19.5253 23.9998H23.593C23.9998 23.9998 24.4066 23.593 24.4066 23.1862V12.6913C24.4066 9.43708 21.9252 6.91504 18.7117 6.91504ZM23.593 23.1455L23.5523 23.1862H19.5659L19.5252 14.4405C19.5252 13.4642 19.2812 12.732 18.7524 12.2032C18.1422 11.593 17.3286 11.2676 16.4744 11.2676C14.7659 11.3083 13.4235 12.6913 13.4235 14.4811V23.1862H8.94896V8.13538H12.9761L13.0167 8.17604V10.7387L14.115 9.64044L14.1557 9.59978C14.9693 8.46081 16.393 7.72861 17.8981 7.72861H18.7523C21.4777 7.72861 23.593 9.92522 23.593 12.6913V23.1455V23.1455Z" fill="white"/>
</svg>
