<svg width="46" height="28" viewBox="0 0 46 28" fill="none" xmlns="http://www.w3.org/2000/svg">
<path d="M2.622 0.944H9.462L19.304 18.234H19.38V0.944H25.536V28H18.772L8.854 10.976H8.778V28H2.622V0.944Z" fill="white"/>
<path d="M19.432 0.944H29.92C31.972 0.944 33.8467 1.19733 35.544 1.704C37.2413 2.21066 38.698 3.00867 39.914 4.098C41.13 5.18733 42.0673 6.59333 42.726 8.316C43.3847 10.0133 43.714 12.0653 43.714 14.472C43.714 16.8787 43.3847 18.9433 42.726 20.666C42.0673 22.3633 41.13 23.7567 39.914 24.846C38.698 25.9353 37.2413 26.7333 35.544 27.24C33.8467 27.7467 31.972 28 29.92 28H19.432V0.944ZM26.196 22.3H30.072C31.3387 22.3 32.4027 22.0973 33.264 21.692C34.1507 21.2867 34.86 20.7293 35.392 20.02C35.9493 19.3107 36.342 18.4873 36.57 17.55C36.8233 16.5873 36.95 15.5613 36.95 14.472C36.95 13.3827 36.8233 12.3693 36.57 11.432C36.342 10.4693 35.9493 9.63333 35.392 8.924C34.86 8.21467 34.1507 7.65733 33.264 7.252C32.3773 6.84667 31.3007 6.644 30.034 6.644H26.196V22.3Z" fill="white"/>
</svg>
