<svg width="35" height="24" viewBox="0 0 35 24" fill="none" xmlns="http://www.w3.org/2000/svg">
<path d="M32.5714 0H1.71429C0.767508 0 7.49301e-06 0.7675 7.49301e-06 1.71429V22.2857C-0.00106394 22.6459 0.112793 22.9971 0.32515 23.288C0.647008 23.7346 1.16379 23.9995 1.71429 24H32.5714C33.1212 23.9996 33.6373 23.7357 33.9594 23.2903C34.1723 22.9986 34.2867 22.6468 34.2857 22.2857V1.71429C34.2857 0.7675 33.5182 0 32.5714 0ZM1.14286 21.9583V3.75771L12.9229 12.8571L1.14286 21.9583ZM1.84858 22.8571L13.8572 13.5794L16.0954 15.3074C16.7125 15.7837 17.5732 15.7837 18.1903 15.3074L20.4286 13.5794L32.4372 22.8571H1.84858ZM33.1429 21.9583L21.3629 12.8571L33.1429 3.75771V21.9583ZM33.1429 2.31371L17.492 14.4029C17.2863 14.5616 16.9994 14.5616 16.7937 14.4029L1.14286 2.31371V1.71429C1.14286 1.39871 1.39872 1.14286 1.71429 1.14286H32.5714C32.887 1.14286 33.1429 1.39871 33.1429 1.71429V2.31371Z" fill="white"/>
</svg>
