<svg width="1450" height="1000" viewBox="0 0 1450 1000" fill="none" xmlns="http://www.w3.org/2000/svg">
<rect width="1450" height="1000" fill="url(#paint0_linear)"/>
<rect x="128" y="83" width="1194" height="834" rx="50" fill="#282626"/>
<path d="M743.659 872.523C743.5 872.231 743.274 872.009 743.015 871.856C743.455 869.939 743.677 865.619 743.675 864.024C743.668 859.534 741.928 855.269 738.777 851.992L738.841 851.829C739.213 850.895 738.913 849.834 738.11 849.249C735.302 847.203 730.218 845 725.694 845C721.554 845 716.472 846.536 713.336 848.736C712.558 849.282 712.226 850.302 712.528 851.217L712.63 851.525C709.162 854.875 707.256 859.327 707.263 864.082C707.266 865.659 707.496 869.896 707.932 871.843C707.663 871.994 707.428 872.222 707.265 872.523C707.03 872.959 706.946 873.494 707.034 874.052L708.562 881.702C708.729 882.77 709.522 883.553 710.387 883.553C710.46 883.553 710.534 883.547 710.608 883.536L711.738 883.359C712.04 884.33 712.941 885 713.957 885C714.076 885 714.197 884.991 714.318 884.972L717.521 884.472C718.136 884.376 718.677 884.046 719.045 883.542C719.412 883.04 719.561 882.424 719.462 881.795L717.238 869.69C717.142 869.075 716.812 868.534 716.309 868.167C715.806 867.8 715.189 867.65 714.574 867.746L711.372 868.247C710.102 868.446 709.23 869.64 709.431 870.924L709.534 871.487L708.899 871.586C708.513 869.836 708.266 865.839 708.263 864.08C708.257 859.76 709.929 855.704 712.981 852.587L713.175 853.176C713.324 853.627 713.683 853.981 714.135 854.123C714.589 854.266 715.069 854.184 715.45 853.899C718.263 851.798 721.997 850.593 725.694 850.593C729.426 850.593 733.184 851.816 736.003 853.949C736.26 854.143 736.565 854.244 736.877 854.244C737.009 854.244 737.142 854.226 737.274 854.189C737.723 854.064 738.079 853.744 738.252 853.311L738.368 853.019C741.142 856.062 742.669 859.946 742.675 864.026C742.678 865.804 742.439 869.869 742.051 871.59L741.39 871.487L741.496 870.91C741.694 869.64 740.822 868.446 739.552 868.247L736.35 867.746C735.08 867.548 733.885 868.42 733.689 869.677L731.46 881.809C731.364 882.424 731.513 883.04 731.88 883.542C732.247 884.046 732.788 884.376 733.403 884.472L736.606 884.972C736.727 884.991 736.848 885 736.967 885C737.987 885 738.89 884.327 739.187 883.359L740.316 883.536C740.39 883.547 740.464 883.553 740.538 883.553C741.402 883.553 742.195 882.772 742.358 881.723L743.894 874.031C743.977 873.494 743.894 872.959 743.659 872.523ZM711.526 869.235L714.729 868.735C714.798 868.723 714.868 868.718 714.937 868.718C715.217 868.718 715.489 868.806 715.719 868.974C716.006 869.184 716.195 869.493 716.252 869.858L718.476 881.963C718.531 882.314 718.446 882.666 718.237 882.953C718.027 883.241 717.718 883.429 717.366 883.484L714.164 883.984C713.439 884.097 712.756 883.6 712.64 882.861L710.416 870.756C710.303 870.031 710.801 869.348 711.526 869.235ZM708.574 872.649L709.715 872.471L711.535 882.378L710.454 882.547C710.057 882.613 709.644 882.151 709.546 881.527L708.018 873.877C707.968 873.559 708.015 873.24 708.145 872.999C708.207 872.884 708.346 872.685 708.574 872.649ZM737.912 851.459L737.322 852.941C737.266 853.081 737.151 853.185 737.005 853.226C736.924 853.25 736.763 853.271 736.607 853.151C733.617 850.89 729.639 849.593 725.694 849.593C721.786 849.593 717.834 850.871 714.852 853.098C714.731 853.189 714.579 853.213 714.435 853.169C714.287 853.122 714.174 853.011 714.125 852.863L713.478 850.903C713.313 850.404 713.491 849.85 713.911 849.555C716.847 847.495 721.802 846 725.694 846C729.804 846 734.755 848.041 737.522 850.057C737.954 850.373 738.115 850.949 737.912 851.459ZM738.281 882.874C738.167 883.6 737.484 884.096 736.76 883.984L733.557 883.484C733.206 883.429 732.897 883.241 732.687 882.953C732.477 882.666 732.392 882.314 732.445 881.976L734.674 869.845C734.788 869.119 735.469 868.622 736.195 868.735L739.398 869.235C740.123 869.348 740.621 870.031 740.51 870.743L738.281 882.874ZM742.909 873.856L741.374 881.548C741.28 882.151 740.868 882.613 740.47 882.547L739.389 882.378L741.209 872.471L742.35 872.649C742.578 872.685 742.716 872.884 742.779 872.999C742.909 873.24 742.955 873.559 742.909 873.856Z" fill="white"/>
<rect x="1252" y="123" width="40" height="40" rx="10" fill="url(#paint1_linear)"/>
<path d="M1275.62 132.15C1275.15 131.91 1274.58 131.961 1274.16 132.282L1267.07 137.602H1262.4C1261.63 137.602 1261 138.228 1261 139.001V146.001C1261 146.774 1261.63 147.401 1262.4 147.401H1267.07L1274.16 152.72C1274.78 153.184 1275.65 153.058 1276.12 152.44C1276.3 152.198 1276.4 151.903 1276.4 151.6V133.402C1276.4 132.871 1276.1 132.385 1275.62 132.15ZM1275 151.6L1267.72 146.141C1267.6 146.05 1267.45 146.001 1267.3 146.001H1262.4V139.001H1267.3C1267.45 139.001 1267.6 138.952 1267.72 138.861L1275 133.402L1275 151.6Z" fill="white"/>
<path d="M1281.59 142.501L1283.07 141.017C1283.34 140.739 1283.33 140.296 1283.06 140.027C1282.78 139.765 1282.35 139.765 1282.08 140.027L1280.6 141.512L1279.11 140.027C1278.84 139.759 1278.39 139.766 1278.12 140.044C1277.86 140.315 1277.86 140.745 1278.12 141.017L1279.61 142.501L1278.12 143.986C1277.85 144.254 1277.84 144.697 1278.11 144.976C1278.38 145.253 1278.82 145.261 1279.1 144.993C1279.1 144.987 1279.11 144.981 1279.11 144.976L1280.6 143.491L1282.08 144.976C1282.36 145.244 1282.8 145.236 1283.07 144.958C1283.33 144.687 1283.33 144.257 1283.07 143.986L1281.59 142.501Z" fill="white"/>
<rect x="541.5" y="549.5" width="167" height="51" rx="25.5" stroke="white"/>
<path d="M599.555 575.031H591.598V583H590.156V565.938H600.727V567.168H591.598V573.801H599.555V575.031ZM608.883 571.516C608.586 571.461 608.27 571.434 607.934 571.434C607.059 571.434 606.316 571.68 605.707 572.172C605.105 572.656 604.676 573.363 604.418 574.293V583H603.023V570.32H604.395L604.418 572.336C605.16 570.836 606.352 570.086 607.992 570.086C608.383 570.086 608.691 570.137 608.918 570.238L608.883 571.516ZM615.785 583.234C614.707 583.234 613.73 582.969 612.855 582.438C611.988 581.906 611.312 581.168 610.828 580.223C610.344 579.27 610.102 578.203 610.102 577.023V576.52C610.102 575.301 610.336 574.203 610.805 573.227C611.281 572.25 611.941 571.484 612.785 570.93C613.629 570.367 614.543 570.086 615.527 570.086C617.066 570.086 618.285 570.613 619.184 571.668C620.09 572.715 620.543 574.148 620.543 575.969V576.754H611.496V577.023C611.496 578.461 611.906 579.66 612.727 580.621C613.555 581.574 614.594 582.051 615.844 582.051C616.594 582.051 617.254 581.914 617.824 581.641C618.402 581.367 618.926 580.93 619.395 580.328L620.273 580.996C619.242 582.488 617.746 583.234 615.785 583.234ZM615.527 571.281C614.473 571.281 613.582 571.668 612.855 572.441C612.137 573.215 611.699 574.254 611.543 575.559H619.148V575.406C619.109 574.188 618.762 573.195 618.105 572.43C617.449 571.664 616.59 571.281 615.527 571.281ZM624.609 570.32L624.656 572.488C625.133 571.707 625.727 571.113 626.438 570.707C627.148 570.293 627.934 570.086 628.793 570.086C630.152 570.086 631.164 570.469 631.828 571.234C632.492 572 632.828 573.148 632.836 574.68V583H631.441V574.668C631.434 573.535 631.191 572.691 630.715 572.137C630.246 571.582 629.492 571.305 628.453 571.305C627.586 571.305 626.816 571.578 626.145 572.125C625.48 572.664 624.988 573.395 624.668 574.316V583H623.273V570.32H624.609ZM641.156 582.051C642.133 582.051 642.949 581.777 643.605 581.23C644.27 580.676 644.629 579.961 644.684 579.086H646.031C645.992 579.859 645.75 580.566 645.305 581.207C644.859 581.84 644.266 582.336 643.523 582.695C642.789 583.055 642 583.234 641.156 583.234C639.492 583.234 638.172 582.656 637.195 581.5C636.227 580.344 635.742 578.789 635.742 576.836V576.414C635.742 575.164 635.961 574.059 636.398 573.098C636.836 572.137 637.461 571.395 638.273 570.871C639.094 570.348 640.051 570.086 641.145 570.086C642.535 570.086 643.68 570.5 644.578 571.328C645.484 572.156 645.969 573.246 646.031 574.598H644.684C644.621 573.605 644.262 572.805 643.605 572.195C642.957 571.586 642.137 571.281 641.145 571.281C639.879 571.281 638.895 571.738 638.191 572.652C637.496 573.566 637.148 574.848 637.148 576.496V576.906C637.148 578.523 637.496 579.785 638.191 580.691C638.895 581.598 639.883 582.051 641.156 582.051ZM650.238 572.465C650.699 571.707 651.289 571.121 652.008 570.707C652.727 570.293 653.512 570.086 654.363 570.086C655.723 570.086 656.734 570.469 657.398 571.234C658.062 572 658.398 573.148 658.406 574.68V583H657.012V574.668C657.004 573.535 656.762 572.691 656.285 572.137C655.816 571.582 655.062 571.305 654.023 571.305C653.156 571.305 652.387 571.578 651.715 572.125C651.051 572.664 650.559 573.395 650.238 574.316V583H648.844V565H650.238V572.465Z" fill="white"/>
<path d="M798.578 574.82H790.598V581.781H799.773V583H789.156V565.938H799.715V567.168H790.598V573.602H798.578V574.82ZM803.828 570.32L803.875 572.488C804.352 571.707 804.945 571.113 805.656 570.707C806.367 570.293 807.152 570.086 808.012 570.086C809.371 570.086 810.383 570.469 811.047 571.234C811.711 572 812.047 573.148 812.055 574.68V583H810.66V574.668C810.652 573.535 810.41 572.691 809.934 572.137C809.465 571.582 808.711 571.305 807.672 571.305C806.805 571.305 806.035 571.578 805.363 572.125C804.699 572.664 804.207 573.395 803.887 574.316V583H802.492V570.32H803.828ZM815.125 576.543C815.125 574.559 815.562 572.988 816.438 571.832C817.32 570.668 818.516 570.086 820.023 570.086C821.75 570.086 823.062 570.773 823.961 572.148L824.031 570.32H825.344V582.742C825.344 584.375 824.887 585.668 823.973 586.621C823.059 587.574 821.82 588.051 820.258 588.051C819.375 588.051 818.531 587.852 817.727 587.453C816.93 587.062 816.301 586.539 815.84 585.883L816.625 585.039C817.617 586.258 818.797 586.867 820.164 586.867C821.336 586.867 822.25 586.52 822.906 585.824C823.562 585.137 823.902 584.18 823.926 582.953V581.359C823.027 582.609 821.719 583.234 820 583.234C818.531 583.234 817.352 582.648 816.461 581.477C815.57 580.305 815.125 578.723 815.125 576.73V576.543ZM816.543 576.789C816.543 578.406 816.867 579.684 817.516 580.621C818.164 581.551 819.078 582.016 820.258 582.016C821.984 582.016 823.207 581.242 823.926 579.695V573.801C823.598 572.988 823.125 572.371 822.508 571.949C821.891 571.52 821.148 571.305 820.281 571.305C819.102 571.305 818.184 571.77 817.527 572.699C816.871 573.621 816.543 574.984 816.543 576.789ZM830.57 583H829.164V565H830.57V583ZM835.961 583H834.555V570.32H835.961V583ZM834.309 566.652C834.309 566.387 834.395 566.164 834.566 565.984C834.738 565.797 834.973 565.703 835.27 565.703C835.566 565.703 835.801 565.797 835.973 565.984C836.152 566.164 836.242 566.387 836.242 566.652C836.242 566.918 836.152 567.141 835.973 567.32C835.801 567.5 835.566 567.59 835.27 567.59C834.973 567.59 834.738 567.5 834.566 567.32C834.395 567.141 834.309 566.918 834.309 566.652ZM847.375 579.777C847.375 579.082 847.094 578.523 846.531 578.102C845.977 577.68 845.137 577.352 844.012 577.117C842.887 576.875 842.012 576.602 841.387 576.297C840.77 575.984 840.309 575.605 840.004 575.16C839.707 574.715 839.559 574.176 839.559 573.543C839.559 572.543 839.977 571.719 840.812 571.07C841.648 570.414 842.719 570.086 844.023 570.086C845.438 570.086 846.57 570.438 847.422 571.141C848.281 571.836 848.711 572.746 848.711 573.871H847.305C847.305 573.129 846.992 572.512 846.367 572.02C845.75 571.527 844.969 571.281 844.023 571.281C843.102 571.281 842.359 571.488 841.797 571.902C841.242 572.309 840.965 572.84 840.965 573.496C840.965 574.129 841.195 574.621 841.656 574.973C842.125 575.316 842.973 575.633 844.199 575.922C845.434 576.211 846.355 576.52 846.965 576.848C847.582 577.176 848.039 577.57 848.336 578.031C848.633 578.492 848.781 579.051 848.781 579.707C848.781 580.777 848.348 581.633 847.48 582.273C846.621 582.914 845.496 583.234 844.105 583.234C842.629 583.234 841.43 582.879 840.508 582.168C839.594 581.449 839.137 580.543 839.137 579.449H840.543C840.598 580.27 840.941 580.91 841.574 581.371C842.215 581.824 843.059 582.051 844.105 582.051C845.082 582.051 845.871 581.836 846.473 581.406C847.074 580.977 847.375 580.434 847.375 579.777ZM853.34 572.465C853.801 571.707 854.391 571.121 855.109 570.707C855.828 570.293 856.613 570.086 857.465 570.086C858.824 570.086 859.836 570.469 860.5 571.234C861.164 572 861.5 573.148 861.508 574.68V583H860.113V574.668C860.105 573.535 859.863 572.691 859.387 572.137C858.918 571.582 858.164 571.305 857.125 571.305C856.258 571.305 855.488 571.578 854.816 572.125C854.152 572.664 853.66 573.395 853.34 574.316V583H851.945V565H853.34V572.465Z" fill="white"/>
<rect x="741.5" y="549.5" width="167" height="51" rx="25.5" stroke="white"/>
<path d="M473.45 462H468C465.367 462 463.333 461.3 461.9 459.9C460.467 458.5 459.75 456.483 459.75 453.85V438C459.75 435.367 460.467 433.35 461.9 431.95C463.333 430.55 465.367 429.85 468 429.85H473.45C476.05 429.85 478.067 430.567 479.5 432C480.967 433.4 481.7 435.4 481.7 438V440.35C481.7 441.083 481.333 441.45 480.6 441.45H476.4C475.7 441.45 475.35 441.083 475.35 440.35V438.3C475.35 437.233 475.117 436.483 474.65 436.05C474.217 435.583 473.467 435.35 472.4 435.35H469C467.967 435.35 467.217 435.583 466.75 436.05C466.317 436.483 466.1 437.233 466.1 438.3V453.55C466.1 454.617 466.317 455.383 466.75 455.85C467.217 456.283 467.967 456.5 469 456.5H472.4C473.467 456.5 474.217 456.283 474.65 455.85C475.117 455.383 475.35 454.617 475.35 453.55V451.5C475.35 450.767 475.7 450.4 476.4 450.4H480.6C481.333 450.4 481.7 450.767 481.7 451.5V453.85C481.7 456.45 480.967 458.467 479.5 459.9C478.067 461.3 476.05 462 473.45 462ZM493.954 462H489.704C489.004 462 488.654 461.65 488.654 460.95V430.9C488.654 430.2 489.004 429.85 489.704 429.85H493.954C494.654 429.85 495.004 430.2 495.004 430.9V442.65C495.004 443.017 495.204 443.2 495.604 443.2H504.054C504.421 443.2 504.604 443.017 504.604 442.65V430.9C504.604 430.2 504.954 429.85 505.654 429.85H509.904C510.604 429.85 510.954 430.2 510.954 430.9V460.95C510.954 461.65 510.604 462 509.904 462H505.654C504.954 462 504.604 461.65 504.604 460.95V449.25C504.604 448.883 504.421 448.7 504.054 448.7H495.604C495.204 448.7 495.004 448.883 495.004 449.25V460.95C495.004 461.65 494.654 462 493.954 462ZM527.713 456.5H531.263C532.33 456.5 533.08 456.283 533.513 455.85C533.98 455.383 534.213 454.617 534.213 453.55V438.3C534.213 437.233 533.98 436.483 533.513 436.05C533.08 435.583 532.33 435.35 531.263 435.35H527.713C526.646 435.35 525.896 435.583 525.463 436.05C525.03 436.483 524.813 437.233 524.813 438.3V453.55C524.813 454.617 525.03 455.383 525.463 455.85C525.896 456.283 526.646 456.5 527.713 456.5ZM532.313 462H526.713C524.08 462 522.046 461.3 520.613 459.9C519.18 458.5 518.463 456.483 518.463 453.85V438C518.463 435.367 519.18 433.35 520.613 431.95C522.046 430.55 524.08 429.85 526.713 429.85H532.313C534.946 429.85 536.98 430.55 538.413 431.95C539.846 433.35 540.563 435.367 540.563 438V453.85C540.563 456.483 539.846 458.5 538.413 459.9C536.98 461.3 534.946 462 532.313 462ZM556.801 456.5H560.351C561.417 456.5 562.167 456.283 562.601 455.85C563.067 455.383 563.301 454.617 563.301 453.55V438.3C563.301 437.233 563.067 436.483 562.601 436.05C562.167 435.583 561.417 435.35 560.351 435.35H556.801C555.734 435.35 554.984 435.583 554.551 436.05C554.117 436.483 553.901 437.233 553.901 438.3V453.55C553.901 454.617 554.117 455.383 554.551 455.85C554.984 456.283 555.734 456.5 556.801 456.5ZM561.401 462H555.801C553.167 462 551.134 461.3 549.701 459.9C548.267 458.5 547.551 456.483 547.551 453.85V438C547.551 435.367 548.267 433.35 549.701 431.95C551.134 430.55 553.167 429.85 555.801 429.85H561.401C564.034 429.85 566.067 430.55 567.501 431.95C568.934 433.35 569.651 435.367 569.651 438V453.85C569.651 456.483 568.934 458.5 567.501 459.9C566.067 461.3 564.034 462 561.401 462ZM576.339 453.8V452.8C576.339 452.1 576.689 451.75 577.389 451.75H581.639C582.339 451.75 582.689 452.1 582.689 452.8V453.2C582.689 454.467 582.939 455.333 583.439 455.8C583.939 456.267 584.855 456.5 586.189 456.5H588.539C589.839 456.5 590.739 456.25 591.239 455.75C591.772 455.25 592.039 454.317 592.039 452.95V452.35C592.039 451.383 591.639 450.65 590.839 450.15C590.072 449.617 589.105 449.3 587.939 449.2C586.772 449.1 585.505 448.917 584.139 448.65C582.805 448.35 581.555 447.983 580.389 447.55C579.222 447.083 578.239 446.2 577.439 444.9C576.672 443.567 576.289 441.867 576.289 439.8V438.05C576.289 435.45 577.022 433.433 578.489 432C579.955 430.567 581.989 429.85 584.589 429.85H589.589C592.222 429.85 594.272 430.567 595.739 432C597.205 433.433 597.939 435.45 597.939 438.05V439C597.939 439.7 597.589 440.05 596.889 440.05H592.639C591.939 440.05 591.589 439.7 591.589 439V438.7C591.589 437.4 591.339 436.517 590.839 436.05C590.339 435.583 589.422 435.35 588.089 435.35H586.139C584.772 435.35 583.839 435.617 583.339 436.15C582.872 436.65 582.639 437.65 582.639 439.15V440.1C582.639 441.667 584.005 442.567 586.739 442.8C589.572 443.033 592.089 443.6 594.289 444.5C595.455 445 596.422 445.9 597.189 447.2C597.989 448.467 598.389 450.1 598.389 452.1V453.8C598.389 456.4 597.655 458.417 596.189 459.85C594.722 461.283 592.689 462 590.089 462H584.639C582.039 462 580.005 461.283 578.539 459.85C577.072 458.417 576.339 456.4 576.339 453.8ZM622.992 462H606.642C605.942 462 605.592 461.65 605.592 460.95V430.9C605.592 430.2 605.942 429.85 606.642 429.85H622.992C623.658 429.85 623.992 430.2 623.992 430.9V434.3C623.992 435 623.658 435.35 622.992 435.35H612.542C612.142 435.35 611.942 435.533 611.942 435.9V442.4C611.942 442.767 612.142 442.95 612.542 442.95H621.092C621.792 442.95 622.142 443.3 622.142 444V447.4C622.142 448.1 621.792 448.45 621.092 448.45H612.542C612.142 448.45 611.942 448.633 611.942 449V455.95C611.942 456.317 612.142 456.5 612.542 456.5H622.992C623.658 456.5 623.992 456.85 623.992 457.55V460.95C623.992 461.65 623.658 462 622.992 462ZM655.304 462H651.054C650.354 462 650.004 461.65 650.004 460.95V450.25L640.854 430.95C640.721 430.65 640.721 430.4 640.854 430.2C641.021 429.967 641.254 429.85 641.554 429.85H646.854C647.387 429.85 647.787 430.2 648.054 430.9L653.054 443.05H653.404L658.304 430.9C658.537 430.2 658.937 429.85 659.504 429.85H664.804C665.137 429.85 665.371 429.95 665.504 430.15C665.671 430.35 665.671 430.617 665.504 430.95L656.354 450.25V460.95C656.354 461.65 656.004 462 655.304 462ZM679.584 456.5H683.134C684.201 456.5 684.951 456.283 685.384 455.85C685.851 455.383 686.084 454.617 686.084 453.55V438.3C686.084 437.233 685.851 436.483 685.384 436.05C684.951 435.583 684.201 435.35 683.134 435.35H679.584C678.517 435.35 677.767 435.583 677.334 436.05C676.901 436.483 676.684 437.233 676.684 438.3V453.55C676.684 454.617 676.901 455.383 677.334 455.85C677.767 456.283 678.517 456.5 679.584 456.5ZM684.184 462H678.584C675.951 462 673.917 461.3 672.484 459.9C671.051 458.5 670.334 456.483 670.334 453.85V438C670.334 435.367 671.051 433.35 672.484 431.95C673.917 430.55 675.951 429.85 678.584 429.85H684.184C686.817 429.85 688.851 430.55 690.284 431.95C691.717 433.35 692.434 435.367 692.434 438V453.85C692.434 456.483 691.717 458.5 690.284 459.9C688.851 461.3 686.817 462 684.184 462ZM716.372 429.85H720.572C721.305 429.85 721.672 430.183 721.672 430.85V453.85C721.672 456.45 720.939 458.467 719.472 459.9C718.039 461.3 716.022 462 713.422 462H707.922C705.289 462 703.255 461.3 701.822 459.9C700.389 458.5 699.672 456.483 699.672 453.85V430.9C699.672 430.2 700.022 429.85 700.722 429.85H704.972C705.672 429.85 706.022 430.2 706.022 430.9V453.55C706.022 454.617 706.239 455.383 706.672 455.85C707.139 456.283 707.889 456.5 708.922 456.5H712.372C713.439 456.5 714.189 456.283 714.622 455.85C715.089 455.383 715.322 454.617 715.322 453.55V430.9C715.322 430.2 715.672 429.85 716.372 429.85ZM734.7 462H730.45C729.75 462 729.4 461.65 729.4 460.95V430.9C729.4 430.2 729.75 429.85 730.45 429.85H742.35C744.95 429.85 746.984 430.567 748.45 432C749.917 433.433 750.65 435.45 750.65 438.05V441.95C750.65 445.717 749.167 448.217 746.2 449.45V449.65L751.55 460.8C751.85 461.6 751.567 462 750.7 462H746.65C746.05 462 745.617 461.933 745.35 461.8C745.084 461.667 744.867 461.383 744.7 460.95L739.7 450.15H736.35C735.95 450.15 735.75 450.333 735.75 450.7V460.95C735.75 461.65 735.4 462 734.7 462ZM736.3 445.05H741.2C742.267 445.05 743.05 444.833 743.55 444.4C744.05 443.933 744.3 443.2 744.3 442.2V438.3C744.3 437.267 744.05 436.517 743.55 436.05C743.05 435.583 742.267 435.35 741.2 435.35H736.3C735.934 435.35 735.75 435.533 735.75 435.9V444.5C735.75 444.867 735.934 445.05 736.3 445.05ZM788.23 462H771.78C771.08 462 770.73 461.65 770.73 460.95V430.9C770.73 430.2 771.08 429.85 771.78 429.85H776.03C776.73 429.85 777.08 430.2 777.08 430.9V455.9C777.08 456.267 777.28 456.45 777.68 456.45H788.23C788.897 456.45 789.23 456.817 789.23 457.55V460.95C789.23 461.65 788.897 462 788.23 462ZM798.041 462H793.241C792.641 462 792.441 461.65 792.641 460.95L800.541 430.9C800.775 430.2 801.275 429.85 802.041 429.85H808.691C809.525 429.85 810.025 430.2 810.191 430.9L818.091 460.95C818.291 461.65 818.091 462 817.491 462H812.691C812.325 462 812.075 461.933 811.941 461.8C811.808 461.633 811.708 461.35 811.641 460.95L810.241 455.45H800.491L799.091 460.95C799.025 461.35 798.908 461.633 798.741 461.8C798.608 461.933 798.375 462 798.041 462ZM805.291 435.9L801.691 450.35H809.091L805.491 435.9H805.291ZM829.223 462H825.073C824.373 462 824.023 461.65 824.023 460.95V430.9C824.023 430.2 824.373 429.85 825.073 429.85H828.823C829.523 429.85 829.99 430.083 830.223 430.55L840.323 449.5H840.523V430.9C840.523 430.2 840.873 429.85 841.573 429.85H845.723C846.423 429.85 846.773 430.2 846.773 430.9V460.95C846.773 461.65 846.423 462 845.723 462H842.073C841.34 462 840.807 461.667 840.473 461L830.473 442.4H830.273V460.95C830.273 461.65 829.923 462 829.223 462ZM867.821 462H862.521C859.888 462 857.855 461.3 856.421 459.9C854.988 458.5 854.271 456.483 854.271 453.85V438C854.271 435.367 854.988 433.35 856.421 431.95C857.855 430.55 859.888 429.85 862.521 429.85H867.821C870.421 429.85 872.438 430.567 873.871 432C875.305 433.4 876.021 435.4 876.021 438V439.5C876.021 440.233 875.671 440.6 874.971 440.6H870.721C870.021 440.6 869.671 440.233 869.671 439.5V438.3C869.671 437.233 869.455 436.483 869.021 436.05C868.588 435.583 867.838 435.35 866.771 435.35H863.521C862.488 435.35 861.738 435.583 861.271 436.05C860.838 436.483 860.621 437.233 860.621 438.3V453.55C860.621 454.617 860.838 455.383 861.271 455.85C861.738 456.283 862.488 456.5 863.521 456.5H866.771C867.838 456.5 868.588 456.283 869.021 455.85C869.455 455.383 869.671 454.617 869.671 453.55V450.4C869.671 450.033 869.488 449.85 869.121 449.85H866.121C865.421 449.85 865.071 449.5 865.071 448.8V445.4C865.071 444.7 865.421 444.35 866.121 444.35H874.871C875.638 444.35 876.021 444.733 876.021 445.5V453.85C876.021 456.45 875.305 458.467 873.871 459.9C872.438 461.3 870.421 462 867.821 462ZM899.968 429.85H904.168C904.901 429.85 905.268 430.183 905.268 430.85V453.85C905.268 456.45 904.534 458.467 903.068 459.9C901.634 461.3 899.618 462 897.018 462H891.518C888.884 462 886.851 461.3 885.418 459.9C883.984 458.5 883.268 456.483 883.268 453.85V430.9C883.268 430.2 883.618 429.85 884.318 429.85H888.568C889.268 429.85 889.618 430.2 889.618 430.9V453.55C889.618 454.617 889.834 455.383 890.268 455.85C890.734 456.283 891.484 456.5 892.518 456.5H895.968C897.034 456.5 897.784 456.283 898.218 455.85C898.684 455.383 898.918 454.617 898.918 453.55V430.9C898.918 430.2 899.268 429.85 899.968 429.85ZM916.346 462H911.546C910.946 462 910.746 461.65 910.946 460.95L918.846 430.9C919.079 430.2 919.579 429.85 920.346 429.85H926.996C927.829 429.85 928.329 430.2 928.496 430.9L936.396 460.95C936.596 461.65 936.396 462 935.796 462H930.996C930.629 462 930.379 461.933 930.246 461.8C930.113 461.633 930.013 461.35 929.946 460.95L928.546 455.45H918.796L917.396 460.95C917.329 461.35 917.213 461.633 917.046 461.8C916.913 461.933 916.679 462 916.346 462ZM923.596 435.9L919.996 450.35H927.396L923.796 435.9H923.596ZM955.378 462H950.078C947.445 462 945.411 461.3 943.978 459.9C942.545 458.5 941.828 456.483 941.828 453.85V438C941.828 435.367 942.545 433.35 943.978 431.95C945.411 430.55 947.445 429.85 950.078 429.85H955.378C957.978 429.85 959.995 430.567 961.428 432C962.861 433.4 963.578 435.4 963.578 438V439.5C963.578 440.233 963.228 440.6 962.528 440.6H958.278C957.578 440.6 957.228 440.233 957.228 439.5V438.3C957.228 437.233 957.011 436.483 956.578 436.05C956.145 435.583 955.395 435.35 954.328 435.35H951.078C950.045 435.35 949.295 435.583 948.828 436.05C948.395 436.483 948.178 437.233 948.178 438.3V453.55C948.178 454.617 948.395 455.383 948.828 455.85C949.295 456.283 950.045 456.5 951.078 456.5H954.328C955.395 456.5 956.145 456.283 956.578 455.85C957.011 455.383 957.228 454.617 957.228 453.55V450.4C957.228 450.033 957.045 449.85 956.678 449.85H953.678C952.978 449.85 952.628 449.5 952.628 448.8V445.4C952.628 444.7 952.978 444.35 953.678 444.35H962.428C963.195 444.35 963.578 444.733 963.578 445.5V453.85C963.578 456.45 962.861 458.467 961.428 459.9C959.995 461.3 957.978 462 955.378 462ZM988.474 462H972.124C971.424 462 971.074 461.65 971.074 460.95V430.9C971.074 430.2 971.424 429.85 972.124 429.85H988.474C989.141 429.85 989.474 430.2 989.474 430.9V434.3C989.474 435 989.141 435.35 988.474 435.35H978.024C977.624 435.35 977.424 435.533 977.424 435.9V442.4C977.424 442.767 977.624 442.95 978.024 442.95H986.574C987.274 442.95 987.624 443.3 987.624 444V447.4C987.624 448.1 987.274 448.45 986.574 448.45H978.024C977.624 448.45 977.424 448.633 977.424 449V455.95C977.424 456.317 977.624 456.5 978.024 456.5H988.474C989.141 456.5 989.474 456.85 989.474 457.55V460.95C989.474 461.65 989.141 462 988.474 462Z" fill="white"/>
<defs>
<linearGradient id="paint0_linear" x1="1271.54" y1="169.231" x2="565.818" y2="1117.52" gradientUnits="userSpaceOnUse">
<stop stop-color="#C0EAFF"/>
<stop offset="1" stop-color="#C2BDFB"/>
</linearGradient>
<linearGradient id="paint1_linear" x1="1272" y1="123" x2="1272" y2="163" gradientUnits="userSpaceOnUse">
<stop stop-color="#4A4A4A"/>
<stop offset="1" stop-color="#4A4A4A" stop-opacity="0"/>
</linearGradient>
</defs>
</svg>
